<svg width="1680.000000" height="756.750000" viewBox="0 0 1680 756.75" fill="none" xmlns="http://www.w3.org/2000/svg" xmlns:xlink="http://www.w3.org/1999/xlink">
	<desc>
			Created with Pixso.
	</desc>
	<defs>
		<clipPath id="clip2_43">
			<rect id="Container" width="1680.000000" height="756.750000" fill="white" fill-opacity="0"/>
		</clipPath>
	</defs>
	<g clip-path="url(#clip2_43)">
		<path id="YOUR WORLD. My BMW*" d="M139.95 197.73Q141.58 194.17 141.58 189.45L141.58 185.38Q141.51 180.81 139.87 177.34Q138.66 174.79 136.71 173.08Q136.01 172.47 135.22 171.97Q134.67 171.62 134.09 171.34Q131.49 170.07 128.27 170.07Q125.17 170.07 122.64 171.27Q121.95 171.59 121.31 172.01Q120.7 172.39 120.16 172.84Q117.95 174.66 116.63 177.54Q114.98 181.13 114.98 185.8L114.98 189.31Q114.98 196.33 118.42 200.56Q118.54 200.71 118.66 200.86Q120.2 202.64 122.13 203.68Q124.84 205.13 128.32 205.13Q131.53 205.13 134.13 203.87Q134.73 203.57 135.3 203.21Q135.99 202.77 136.61 202.24Q138.7 200.47 139.95 197.73ZM289.16 197.73Q290.78 194.17 290.78 189.45L290.78 185.38Q290.71 180.81 289.07 177.34Q287.87 174.79 285.92 173.08Q285.22 172.47 284.42 171.97Q283.87 171.62 283.29 171.34Q280.69 170.07 277.47 170.07Q274.37 170.07 271.84 171.27Q271.16 171.59 270.51 172.01Q269.91 172.39 269.36 172.84Q267.16 174.66 265.84 177.54Q264.18 181.13 264.18 185.8L264.18 189.31Q264.18 196.33 267.62 200.56Q267.74 200.71 267.86 200.86Q269.4 202.64 271.34 203.68Q274.04 205.13 277.52 205.13Q280.74 205.13 283.33 203.87Q283.94 203.57 284.5 203.21Q285.2 202.77 285.82 202.24Q287.9 200.47 289.16 197.73ZM108.75 170.54L98.32 189.15L87.98 170.54L84.56 170.54L96.86 191.82L96.86 204.67L99.75 204.67L99.75 191.82L112.07 170.54L108.75 170.54ZM172.35 193.84L172.35 170.54L169.45 170.54L169.45 193.65Q169.45 197.24 167.72 199.5Q167.39 199.93 167 200.31Q166.62 200.68 166.19 200.99Q163.89 202.7 160.33 202.7Q156.75 202.7 154.44 200.99Q154.03 200.68 153.65 200.32Q153.28 199.96 152.97 199.57Q151.19 197.3 151.19 193.63L151.19 170.54L148.33 170.54L148.33 194.05Q148.42 198.03 150.34 200.68Q150.93 201.5 151.69 202.19Q152.11 202.57 152.56 202.9Q155.63 205.13 160.33 205.13Q163.87 205.13 166.6 203.76Q168.23 202.95 169.42 201.71Q170.23 200.87 170.83 199.84Q172.33 197.28 172.35 193.84ZM183.23 190.46L193.14 190.46L201.39 204.67L204.46 204.67L204.46 204.36L195.93 189.85Q198.1 189.21 199.68 187.87Q200.46 187.21 201.09 186.38Q201.87 185.36 202.34 184.21Q203.01 182.54 203.01 180.6Q203.01 177.15 201.41 174.82Q200.79 173.92 199.94 173.19Q196.87 170.54 191.41 170.54L180.32 170.54L180.32 204.67L183.23 204.67L183.23 190.46ZM229.89 200.75L228.84 195.45L222.6 170.54L219.65 170.54L228.37 204.67L231.14 204.67L239.06 177.97L239.9 174.6L240.77 177.97L248.5 204.67L251.27 204.67L260.01 170.54L257.06 170.54L250.89 195.45L249.77 200.8L248.5 195.69L241.19 170.54L238.59 170.54L231.18 195.69L229.89 200.75ZM300.89 190.46L310.8 190.46L319.05 204.67L322.12 204.67L322.12 204.36L313.59 189.85Q315.76 189.21 317.34 187.87Q318.11 187.21 318.75 186.38Q319.53 185.36 320 184.21Q320.67 182.54 320.67 180.6Q320.67 177.15 319.06 174.82Q318.45 173.92 317.6 173.19Q314.53 170.54 309.07 170.54L297.98 170.54L297.98 204.67L300.89 204.67L300.89 190.46ZM348.28 202.23L331.43 202.23L331.43 170.54L328.52 170.54L328.52 204.67L348.28 204.67L348.28 202.23ZM353.81 170.54L353.81 204.67L363.14 204.67Q367.18 204.67 370.36 203.02Q370.61 202.88 370.86 202.74Q372.22 201.97 373.33 200.93Q374.97 199.39 376.07 197.28Q377.93 193.74 377.93 189.17L377.93 186.03Q377.93 181.49 376.06 177.92Q374.86 175.62 373.03 174Q372.04 173.12 370.87 172.45Q370.29 172.12 369.69 171.85Q366.82 170.54 363.35 170.54L353.81 170.54ZM135.91 176.1Q138.7 179.59 138.7 185.75L138.7 189.36Q138.7 195.62 135.96 199.12Q134.92 200.44 133.59 201.26Q131.37 202.63 128.32 202.63Q125.5 202.63 123.37 201.42Q121.85 200.55 120.68 199.08Q117.86 195.52 117.86 189.45L117.86 185.89Q117.86 179.61 120.69 176.11Q121.89 174.62 123.44 173.76Q125.54 172.6 128.27 172.6Q131.22 172.6 133.41 173.9Q134.82 174.73 135.91 176.1ZM285.11 176.1Q287.9 179.59 287.9 185.75L287.9 189.36Q287.9 195.62 285.16 199.12Q284.13 200.44 282.79 201.26Q280.57 202.63 277.52 202.63Q274.7 202.63 272.57 201.42Q271.05 200.55 269.88 199.08Q267.07 195.52 267.07 189.45L267.07 185.89Q267.07 179.61 269.89 176.11Q271.09 174.62 272.64 173.76Q274.74 172.6 277.47 172.6Q280.42 172.6 282.61 173.9Q284.02 174.73 285.11 176.1ZM192.07 188L183.23 188L183.23 173L191.36 173Q195.51 173 197.81 174.99Q198.41 175.51 198.85 176.14Q200.1 177.93 200.1 180.6Q200.1 182.67 199.23 184.25Q198.72 185.18 197.9 185.94Q197.52 186.3 197.09 186.6Q195.06 188 192.07 188ZM309.72 188L300.89 188L300.89 173L309.02 173Q313.17 173 315.46 174.99Q316.06 175.51 316.5 176.14Q317.76 177.93 317.76 180.6Q317.76 182.67 316.88 184.25Q316.37 185.18 315.56 185.94Q315.17 186.3 314.74 186.6Q312.72 188 309.72 188ZM356.69 202.23L356.69 173L363.39 173Q366.77 173.02 369.3 174.49Q370.71 175.3 371.85 176.56Q372.26 177.02 372.62 177.5Q375.07 180.85 375.07 185.99L375.07 188.99Q375.07 194.5 372.4 197.95Q372.12 198.31 371.81 198.65Q370.71 199.86 369.38 200.65Q366.74 202.23 363.16 202.23L356.69 202.23ZM382.12 202.09Q381.93 202.49 381.93 202.98Q381.93 203.52 382.16 203.93Q382.28 204.15 382.46 204.33Q382.53 204.4 382.61 204.46Q383.12 204.85 383.93 204.85Q384.73 204.85 385.24 204.47Q385.32 204.4 385.4 204.33Q385.6 204.14 385.72 203.91Q385.94 203.5 385.94 202.98Q385.94 202.51 385.76 202.12Q385.63 201.83 385.4 201.58Q385.27 201.45 385.13 201.35Q384.64 201.01 383.93 201.01Q383.2 201.01 382.72 201.35Q382.58 201.45 382.46 201.58Q382.25 201.82 382.12 202.09ZM104.71 264.66L92.13 234.54L88.31 234.54L88.31 268.67L91.19 268.67L91.19 253.71L90.96 238.69L103.61 268.67L105.84 268.67L118.54 238.57L118.31 253.81L118.31 268.67L121.19 268.67L121.19 234.54L117.35 234.54L104.71 264.66ZM164.32 234.54L164.32 268.67L175.73 268.67Q180.93 268.67 183.85 266.12Q184.67 265.41 185.25 264.54Q186.77 262.31 186.77 259.06Q186.77 257.41 186.22 255.99Q185.77 254.83 184.95 253.81Q184.23 252.91 183.33 252.26Q181.96 251.27 180.16 250.88Q181.99 250.26 183.25 249.05Q183.72 248.6 184.11 248.08Q184.52 247.52 184.81 246.91Q185.55 245.37 185.55 243.47Q185.55 240.18 183.97 238.08Q183.43 237.37 182.71 236.8Q179.88 234.54 174.39 234.54L164.32 234.54ZM210.14 264.66L197.55 234.54L193.73 234.54L193.73 268.67L196.61 268.67L196.61 253.71L196.38 238.69L209.03 268.67L211.26 268.67L223.96 238.57L223.73 253.81L223.73 268.67L226.61 268.67L226.61 234.54L222.77 234.54L210.14 264.66ZM242.62 264.75L241.57 259.45L235.33 234.54L232.38 234.54L241.1 268.67L243.86 268.67L251.78 241.97L252.63 238.6L253.5 241.97L261.23 268.67L264 268.67L272.74 234.54L269.78 234.54L263.62 259.45L262.5 264.8L261.23 259.69L253.92 234.54L251.32 234.54L243.91 259.69L242.62 264.75ZM274.66 242.7L282.44 245.23L277.35 252.26L279.35 253.69L284.13 246.59L289.14 253.74L291.14 252.26L285.91 245.37L293.71 242.67L292.94 240.31L285.35 243.28L285.53 234.54L283.1 234.54L283.19 243.21L275.41 240.33L274.66 242.7ZM175.07 249.85L167.2 249.85L167.2 237L174.39 237Q178.54 237 180.59 238.56Q181.03 238.89 181.37 239.3Q182.64 240.81 182.64 243.4Q182.64 245.76 181.51 247.26Q181.15 247.75 180.66 248.15Q178.68 249.77 175.07 249.85ZM144.63 243.31L137.22 264.63L129.35 243.31L126.28 243.31L135.84 268.45L134.6 271.88Q133.71 274.36 132.43 275.38Q132.4 275.4 132.37 275.42Q131.11 276.4 129.09 276.4L127.64 276.26L127.66 278.58Q128.81 278.91 129.82 278.91Q131.45 278.91 132.76 278.26Q134.96 277.18 136.26 274.29L136.82 272.98L147.65 243.31L144.63 243.31ZM167.2 266.23L167.2 252.26L176.08 252.26Q179.67 252.26 181.74 254.03Q181.78 254.07 181.81 254.1Q182.45 254.67 182.89 255.36Q183.89 256.91 183.89 259.1Q183.89 261.51 182.77 263.16Q182.33 263.81 181.72 264.34Q181.63 264.42 181.55 264.49Q179.41 266.23 175.85 266.23L167.2 266.23Z" fill="#FFFFFF" fill-opacity="1.000000" fill-rule="evenodd"/>
		<path id="Испытайте преимущества нового приложения My BMW**" d="M178.71 308.9Q179.07 308.26 179.07 307.42L177.87 307.42Q177.87 308.1 177.56 308.57Q177.45 308.74 177.29 308.88Q177.26 308.91 177.22 308.94Q176.65 309.42 175.68 309.42Q174.66 309.42 174.08 308.91Q174.08 308.91 174.07 308.9Q173.96 308.81 173.88 308.7Q173.49 308.21 173.49 307.42L172.3 307.42Q172.3 308.27 172.66 308.91Q172.88 309.29 173.23 309.6Q173.35 309.71 173.47 309.8Q174.35 310.43 175.68 310.43Q177.07 310.43 177.95 309.76Q178.05 309.68 178.15 309.6Q178.49 309.28 178.71 308.9ZM98.81 307.6L97.37 307.6L87.65 322.19L87.65 307.6L86.2 307.6L86.2 324.67L87.65 324.67L97.37 310.06L97.37 324.67L98.81 324.67L98.81 307.6ZM109.52 323.23Q108.67 323.72 107.55 323.72Q106.34 323.72 105.47 323.17Q104.97 322.85 104.59 322.36Q103.54 321 103.54 318.57L103.54 318.16Q103.54 315.69 104.59 314.32Q104.99 313.8 105.51 313.47Q106.36 312.95 107.54 312.95Q108.57 312.95 109.36 313.39Q109.7 313.58 110.01 313.86Q110.31 314.14 110.52 314.47Q111.01 315.23 111.08 316.26L112.43 316.26Q112.36 314.91 111.74 313.9Q111.43 313.41 110.98 312.99Q110.62 312.66 110.21 312.42Q109.07 311.75 107.54 311.75Q106.12 311.75 105.01 312.34Q104.84 312.43 104.67 312.54Q104.38 312.72 104.12 312.95Q103.29 313.67 102.79 314.76Q102.14 316.2 102.14 318.08L102.14 318.5Q102.14 321.39 103.55 323.11Q103.57 323.14 103.6 323.17Q104.13 323.8 104.8 324.2Q105.97 324.9 107.55 324.9Q108.35 324.9 109.09 324.68Q109.52 324.56 109.92 324.36Q110.72 323.97 111.28 323.37Q111.51 323.14 111.7 322.87Q112.04 322.38 112.22 321.84Q112.4 321.32 112.43 320.75L111.08 320.75Q111.03 321.45 110.73 322.01Q110.47 322.5 110.01 322.89Q109.77 323.08 109.52 323.23ZM165.69 322.9Q165.75 324.07 165.96 324.67L167.46 324.67L167.46 324.52Q167.07 323.61 167.07 321.77L167.07 315.77Q167.04 314.38 166.38 313.44Q166.14 313.1 165.81 312.81Q165.79 312.8 165.78 312.78Q164.56 311.75 162.46 311.75Q160.81 311.75 159.58 312.47Q159.28 312.64 159.01 312.86Q158 313.65 157.72 314.65Q157.6 315.05 157.6 315.48L159.01 315.49Q159.01 315.16 159.1 314.85Q159.31 314.2 159.97 313.69Q160.06 313.61 160.16 313.55Q161.07 312.94 162.39 312.94Q164 312.94 164.84 313.71Q165.04 313.9 165.19 314.12Q165.68 314.82 165.68 315.85L165.68 317.29L163.13 317.29Q160.38 317.29 158.84 318.37Q158.04 318.93 157.65 319.7Q157.3 320.41 157.3 321.3Q157.3 322.14 157.62 322.82Q157.9 323.41 158.43 323.88Q158.61 324.05 158.82 324.19Q159.86 324.9 161.39 324.9Q162.14 324.9 162.85 324.72Q163.34 324.59 163.81 324.38Q164.55 324.04 165.13 323.51Q165.43 323.23 165.69 322.9ZM197.6 324.52Q198.56 324.9 199.67 324.9Q201.41 324.9 202.66 324.12Q203.53 323.58 204.16 322.66L203.28 321.99Q202.58 322.9 201.72 323.31Q200.85 323.72 199.73 323.72Q198.82 323.72 198.06 323.38Q197.26 323.02 196.62 322.28Q196.32 321.93 196.09 321.55Q195.38 320.32 195.38 318.69L195.38 318.42L204.43 318.42L204.43 317.63Q204.43 314.91 203.09 313.34L203.08 313.33Q202.6 312.77 202.01 312.42Q200.91 311.75 199.41 311.75Q198.8 311.75 198.22 311.9Q197.41 312.1 196.67 312.59Q196.35 312.8 196.06 313.06Q195.22 313.8 194.7 314.89Q193.99 316.36 193.99 318.19L193.99 318.69Q193.99 320.36 194.64 321.72Q194.67 321.8 194.71 321.88Q195.18 322.8 195.89 323.46Q196.28 323.82 196.75 324.1Q197.16 324.35 197.6 324.52ZM235.37 323.16Q236.68 321.42 236.68 318.45L236.68 318.26Q236.68 315.2 235.38 313.47Q234.82 312.73 234.08 312.3Q233.1 311.75 231.82 311.75Q230.34 311.75 229.25 312.41Q228.43 312.91 227.84 313.78L227.77 311.99L226.47 311.99L226.47 329.54L227.87 329.54L227.87 323.07Q228.34 323.7 228.96 324.11Q230.14 324.9 231.85 324.9Q232.98 324.9 233.88 324.44Q234.73 324.01 235.37 323.16ZM242.62 324.52Q243.58 324.9 244.69 324.9Q246.43 324.9 247.68 324.12Q248.55 323.58 249.18 322.66L248.3 321.99Q247.6 322.9 246.74 323.31Q245.88 323.72 244.75 323.72Q243.84 323.72 243.08 323.38Q242.28 323.02 241.64 322.28Q241.34 321.93 241.12 321.55Q240.41 320.32 240.41 318.69L240.41 318.42L249.45 318.42L249.45 317.63Q249.45 314.91 248.11 313.34L248.1 313.33Q247.62 312.77 247.03 312.42Q245.94 311.75 244.44 311.75Q243.82 311.75 243.24 311.9Q242.43 312.1 241.69 312.59Q241.37 312.8 241.09 313.06Q240.25 313.8 239.72 314.89Q239.01 316.36 239.01 318.19L239.01 318.69Q239.01 320.36 239.66 321.72Q239.7 321.8 239.74 321.88Q240.21 322.8 240.92 323.46Q241.31 323.82 241.77 324.1Q242.18 324.35 242.62 324.52ZM316.85 324.52Q317.81 324.9 318.92 324.9Q320.66 324.9 321.91 324.12Q322.78 323.58 323.41 322.66L322.53 321.99Q321.83 322.9 320.97 323.31Q320.1 323.72 318.98 323.72Q318.07 323.72 317.31 323.38Q316.51 323.02 315.87 322.28Q315.57 321.93 315.34 321.55Q314.63 320.32 314.63 318.69L314.63 318.42L323.68 318.42L323.68 317.63Q323.68 314.91 322.34 313.34L322.32 313.33Q321.85 312.77 321.26 312.42Q320.16 311.75 318.66 311.75Q318.05 311.75 317.47 311.9Q316.66 312.1 315.92 312.59Q315.6 312.8 315.31 313.06Q314.47 313.8 313.95 314.89Q313.24 316.36 313.24 318.19L313.24 318.69Q313.24 320.36 313.89 321.72Q313.92 321.8 313.96 321.88Q314.43 322.8 315.14 323.46Q315.53 323.82 316 324.1Q316.41 324.35 316.85 324.52ZM333.06 323.23Q332.22 323.72 331.1 323.72Q329.88 323.72 329.02 323.17Q328.52 322.85 328.14 322.36Q327.09 321 327.09 318.57L327.09 318.16Q327.09 315.69 328.14 314.32Q328.54 313.8 329.06 313.47Q329.91 312.95 331.09 312.95Q332.12 312.95 332.9 313.39Q333.25 313.58 333.55 313.86Q333.85 314.14 334.07 314.47Q334.56 315.23 334.62 316.26L335.97 316.26Q335.91 314.91 335.28 313.9Q334.97 313.41 334.52 312.99Q334.17 312.66 333.76 312.42Q332.62 311.75 331.09 311.75Q329.67 311.75 328.56 312.34Q328.39 312.43 328.22 312.54Q327.93 312.72 327.67 312.95Q326.84 313.67 326.34 314.76Q325.68 316.2 325.68 318.08L325.68 318.5Q325.68 321.39 327.1 323.11Q327.12 323.14 327.14 323.17Q327.68 323.8 328.35 324.2Q329.51 324.9 331.1 324.9Q331.9 324.9 332.64 324.68Q333.07 324.56 333.47 324.36Q334.26 323.97 334.83 323.37Q335.06 323.14 335.25 322.87Q335.59 322.38 335.77 321.84Q335.94 321.32 335.97 320.75L334.62 320.75Q334.58 321.45 334.28 322.01Q334.02 322.5 333.55 322.89Q333.32 323.08 333.06 323.23ZM371.33 322.9Q371.39 324.07 371.6 324.67L373.1 324.67L373.1 324.52Q372.71 323.61 372.71 321.77L372.71 315.77Q372.68 314.38 372.02 313.44Q371.78 313.1 371.45 312.81Q371.43 312.8 371.42 312.78Q370.2 311.75 368.1 311.75Q366.45 311.75 365.22 312.47Q364.92 312.64 364.65 312.86Q363.64 313.65 363.36 314.65Q363.24 315.05 363.24 315.48L364.65 315.49Q364.65 315.16 364.74 314.85Q364.95 314.2 365.61 313.69Q365.7 313.61 365.8 313.55Q366.71 312.94 368.03 312.94Q369.64 312.94 370.48 313.71Q370.68 313.9 370.83 314.12Q371.32 314.82 371.32 315.85L371.32 317.29L368.77 317.29Q366.02 317.29 364.48 318.37Q363.68 318.93 363.29 319.7Q362.94 320.41 362.94 321.3Q362.94 322.14 363.26 322.82Q363.54 323.41 364.07 323.88Q364.25 324.05 364.46 324.19Q365.5 324.9 367.03 324.9Q367.78 324.9 368.5 324.72Q368.98 324.59 369.45 324.38Q370.19 324.04 370.77 323.51Q371.07 323.23 371.33 322.9ZM395.71 314.85Q395 316.31 395 318.14L395 318.42Q395 321.01 396.24 322.7Q396.4 322.92 396.58 323.12Q397.22 323.85 398.03 324.29Q399.19 324.9 400.67 324.9Q401.96 324.9 403.04 324.41Q403.33 324.28 403.61 324.1Q403.96 323.89 404.26 323.63Q405.09 322.91 405.61 321.84Q406.32 320.36 406.32 318.52L406.32 318.23Q406.32 315.62 405.07 313.93Q404.92 313.72 404.75 313.53Q404.12 312.81 403.33 312.38Q402.16 311.75 400.65 311.75Q399.46 311.75 398.45 312.18Q398.07 312.34 397.71 312.57Q397.33 312.81 396.99 313.11Q396.21 313.82 395.71 314.85ZM422.57 314.85Q421.86 316.31 421.86 318.14L421.86 318.42Q421.86 321.01 423.1 322.7Q423.26 322.92 423.43 323.12Q424.08 323.85 424.89 324.29Q426.05 324.9 427.53 324.9Q428.82 324.9 429.89 324.41Q430.19 324.28 430.47 324.1Q430.82 323.89 431.12 323.63Q431.95 322.91 432.47 321.84Q433.18 320.36 433.18 318.52L433.18 318.23Q433.18 315.62 431.93 313.93Q431.78 313.72 431.61 313.53Q430.98 312.81 430.19 312.38Q429.02 311.75 427.51 311.75Q426.32 311.75 425.31 312.18Q424.93 312.34 424.57 312.57Q424.18 312.81 423.85 313.11Q423.06 313.82 422.57 314.85ZM445.89 314.85Q445.18 316.31 445.18 318.14L445.18 318.42Q445.18 321.01 446.42 322.7Q446.58 322.92 446.76 323.12Q447.4 323.85 448.21 324.29Q449.37 324.9 450.85 324.9Q452.14 324.9 453.21 324.41Q453.51 324.28 453.79 324.1Q454.14 323.89 454.44 323.63Q455.27 322.91 455.79 321.84Q456.5 320.36 456.5 318.52L456.5 318.23Q456.5 315.62 455.25 313.93Q455.1 313.72 454.93 313.53Q454.3 312.81 453.51 312.38Q452.34 311.75 450.83 311.75Q449.64 311.75 448.63 312.18Q448.25 312.34 447.89 312.57Q447.5 312.81 447.17 313.11Q446.39 313.82 445.89 314.85ZM123.56 324.67L124.96 324.67L124.96 311.99L115.32 311.99L115.32 324.67L116.73 324.67L116.73 313.19L123.56 313.19L123.56 324.67ZM133.92 316.59L130.26 316.59L130.26 311.99L128.87 311.99L128.87 324.67L133.87 324.67Q135.89 324.67 137.13 323.68Q137.2 323.62 137.27 323.56Q137.74 323.15 138.03 322.65Q138.53 321.78 138.53 320.61Q138.53 319.52 138.08 318.67Q138.04 318.59 137.99 318.51Q137.89 318.35 137.78 318.21Q137.26 317.52 136.38 317.1Q135.32 316.59 133.92 316.59ZM141.43 324.67L142.84 324.67L142.84 311.99L141.43 311.99L141.43 324.67ZM151.23 313.18L155.84 313.18L155.84 311.99L145.38 311.99L145.38 313.18L149.82 313.18L149.82 324.67L151.23 324.67L151.23 313.18ZM180.55 311.99L179.14 311.99L172.3 322.42L172.3 311.99L170.9 311.99L170.9 324.67L172.3 324.67L179.14 314.25L179.14 324.67L180.55 324.67L180.55 311.99ZM188.78 313.18L193.4 313.18L193.4 311.99L182.94 311.99L182.94 313.18L187.38 313.18L187.38 324.67L188.78 324.67L188.78 313.18ZM221.33 324.67L222.73 324.67L222.73 311.99L213.09 311.99L213.09 324.67L214.5 324.67L214.5 313.19L221.33 313.19L221.33 324.67ZM261.92 311.99L260.51 311.99L253.67 322.42L253.67 311.99L252.28 311.99L252.28 324.67L253.67 324.67L260.51 314.25L260.51 324.67L261.92 324.67L261.92 311.99ZM277.73 311.99L272.69 322.77L267.66 311.99L265.82 311.99L265.82 324.67L267.22 324.67L267.22 314.02L272.19 324.67L273.18 324.67L278.06 314.26L278.06 324.67L279.46 324.67L279.46 311.99L277.73 311.99ZM290.94 311.99L287.23 322.65L283.3 311.99L281.76 311.99L286.54 324.56L285.92 326.27Q285.48 327.51 284.84 328.02Q284.82 328.03 284.81 328.05Q284.18 328.53 283.17 328.53L282.44 328.46L282.45 329.62Q283.03 329.79 283.53 329.79Q284.35 329.79 285 329.46Q286.1 328.92 286.75 327.48L287.03 326.82L292.45 311.99L290.94 311.99ZM296.05 323.48L296.05 311.99L294.64 311.99L294.64 324.67L310.21 324.67L310.21 328.43L311.5 328.43L311.61 323.48L310.09 323.48L310.09 311.99L308.68 311.99L308.68 323.48L303.1 323.48L303.1 311.99L301.69 311.99L301.69 323.48L296.05 323.48ZM343.26 313.18L347.88 313.18L347.88 311.99L337.41 311.99L337.41 313.18L341.85 313.18L341.85 324.67L343.26 324.67L343.26 313.18ZM350.33 311.99L350.33 324.67L355.74 324.67Q358 324.67 359.24 323.75Q359.73 323.38 360.03 322.9Q360.48 322.16 360.48 321.15Q360.48 320.64 360.32 320.19Q360.13 319.66 359.72 319.22Q359.56 319.03 359.37 318.88Q358.69 318.33 357.72 318.15Q358.82 317.81 359.4 317.07Q359.67 316.71 359.81 316.31Q359.97 315.87 359.97 315.37Q359.97 314.41 359.54 313.71Q359.23 313.21 358.68 312.85Q357.39 311.99 354.98 311.99L350.33 311.99ZM390.62 324.67L392.02 324.67L392.02 311.99L390.62 311.99L390.62 317.67L383.78 317.67L383.78 311.99L382.38 311.99L382.38 324.67L383.78 324.67L383.78 318.85L390.62 318.85L390.62 324.67ZM409.37 311.99L409.37 324.67L414.78 324.67Q417.04 324.67 418.28 323.75Q418.77 323.38 419.07 322.9Q419.52 322.16 419.52 321.15Q419.52 320.64 419.35 320.19Q419.17 319.66 418.76 319.22Q418.59 319.03 418.41 318.88Q417.73 318.33 416.76 318.15Q417.86 317.81 418.44 317.07Q418.71 316.71 418.85 316.31Q419.01 315.87 419.01 315.37Q419.01 314.41 418.58 313.71Q418.26 313.21 417.72 312.85Q416.43 311.99 414.02 311.99L409.37 311.99ZM437.56 313.19L443.97 313.19L443.97 311.99L436.16 311.99L436.16 324.67L437.56 324.67L437.56 313.19ZM197.97 313.23Q198.63 312.95 199.41 312.95Q200.33 312.95 201.04 313.32Q201.57 313.61 201.99 314.1Q202.09 314.21 202.18 314.33Q202.98 315.42 203.03 317.07L203.03 317.22L195.43 317.22Q195.66 315.27 196.75 314.11Q197.3 313.52 197.97 313.23ZM242.99 313.23Q243.65 312.95 244.44 312.95Q245.35 312.95 246.07 313.32Q246.6 313.61 247.02 314.1Q247.11 314.21 247.2 314.33Q248.01 315.42 248.06 317.07L248.06 317.22L240.45 317.22Q240.69 315.27 241.77 314.11Q242.32 313.52 242.99 313.23ZM317.22 313.23Q317.88 312.95 318.66 312.95Q319.58 312.95 320.29 313.32Q320.82 313.61 321.24 314.1Q321.34 314.21 321.43 314.33Q322.23 315.42 322.28 317.07L322.28 317.22L314.68 317.22Q314.91 315.27 316 314.11Q316.54 313.52 317.22 313.23ZM397.37 321.97Q396.41 320.58 396.41 318.52L396.41 318.27Q396.41 315.96 397.52 314.5Q397.55 314.46 397.59 314.42Q398.19 313.67 398.97 313.3Q399.73 312.95 400.65 312.95Q401.5 312.95 402.23 313.25Q402.56 313.4 402.87 313.61Q403 313.69 403.11 313.78Q403.91 314.42 404.39 315.48Q404.93 316.69 404.93 318.14L404.93 318.41Q404.93 320.77 403.78 322.22Q403.76 322.24 403.75 322.26Q403.18 322.96 402.44 323.33Q401.65 323.72 400.67 323.72Q399.67 323.72 398.87 323.31Q398.14 322.95 397.58 322.26Q397.47 322.12 397.37 321.97ZM424.23 321.97Q423.27 320.58 423.27 318.52L423.27 318.27Q423.27 315.96 424.38 314.5Q424.41 314.46 424.45 314.42Q425.05 313.67 425.83 313.3Q426.59 312.95 427.51 312.95Q428.36 312.95 429.09 313.25Q429.42 313.4 429.73 313.61Q429.86 313.69 429.97 313.78Q430.77 314.42 431.25 315.48Q431.78 316.69 431.78 318.14L431.78 318.41Q431.78 320.77 430.64 322.22Q430.62 322.24 430.61 322.26Q430.04 322.96 429.3 323.33Q428.51 323.72 427.53 323.72Q426.53 323.72 425.73 323.31Q425 322.95 424.44 322.26Q424.33 322.12 424.23 321.97ZM447.55 321.97Q446.59 320.58 446.59 318.52L446.59 318.27Q446.59 315.96 447.7 314.5Q447.73 314.46 447.77 314.42Q448.37 313.67 449.15 313.3Q449.91 312.95 450.83 312.95Q451.68 312.95 452.41 313.25Q452.74 313.4 453.05 313.61Q453.18 313.69 453.29 313.78Q454.09 314.42 454.57 315.48Q455.1 316.69 455.1 318.14L455.1 318.41Q455.1 320.77 453.96 322.22Q453.94 322.24 453.93 322.26Q453.36 322.96 452.62 323.33Q451.83 323.72 450.85 323.72Q449.85 323.72 449.05 323.31Q448.32 322.95 447.76 322.26Q447.65 322.12 447.55 321.97ZM234.28 314.38Q235.27 315.78 235.27 318.21Q235.27 320.89 234.28 322.3Q233.82 322.97 233.18 323.32Q232.46 323.72 231.52 323.72Q230.28 323.72 229.36 323.17Q229.33 323.16 229.31 323.14Q229.08 323 228.88 322.83Q228.25 322.3 227.87 321.48L227.87 315.4Q228.31 314.33 229.1 313.73Q229.19 313.66 229.28 313.59Q229.37 313.53 229.46 313.48Q230.33 312.97 231.5 312.97Q232.46 312.97 233.19 313.38Q233.82 313.73 234.28 314.38ZM355.27 317.66L351.72 317.66L351.72 313.18L354.98 313.18Q356.76 313.18 357.67 313.71Q358.04 313.93 358.25 314.25Q358.58 314.71 358.58 315.41Q358.58 316.08 358.27 316.55Q357.57 317.63 355.27 317.66ZM414.31 317.66L410.76 317.66L410.76 313.18L414.02 313.18Q415.8 313.18 416.71 313.71Q417.07 313.93 417.29 314.25Q417.62 314.71 417.62 315.41Q417.62 316.08 417.31 316.55Q416.61 317.63 414.31 317.66ZM130.26 323.48L130.26 317.79L134 317.79Q135.34 317.81 136.16 318.47Q136.23 318.53 136.29 318.59Q136.58 318.86 136.77 319.18Q137.13 319.8 137.13 320.63Q137.13 321.57 136.7 322.22Q136.52 322.49 136.27 322.72Q136.25 322.74 136.23 322.75Q135.38 323.48 133.89 323.48L130.26 323.48ZM163.52 323.26Q162.62 323.66 161.55 323.66Q160.49 323.66 159.77 323.17Q159.62 323.07 159.49 322.95Q159.11 322.61 158.91 322.18Q158.7 321.73 158.7 321.19Q158.7 320.63 158.91 320.18Q159.2 319.57 159.89 319.14Q161.07 318.4 163.17 318.37L165.68 318.37L165.68 321.16Q165.49 321.59 165.21 321.95Q164.76 322.55 164.06 322.98Q163.8 323.14 163.52 323.26ZM369.16 323.26Q368.26 323.66 367.19 323.66Q366.13 323.66 365.41 323.17Q365.26 323.07 365.13 322.95Q364.75 322.61 364.55 322.18Q364.34 321.73 364.34 321.19Q364.34 320.63 364.56 320.18Q364.84 319.57 365.53 319.14Q366.71 318.4 368.81 318.37L371.32 318.37L371.32 321.16Q371.13 321.59 370.85 321.95Q370.4 322.55 369.7 322.98Q369.44 323.14 369.16 323.26ZM351.72 323.49L351.72 318.83L355.79 318.83Q357.37 318.83 358.23 319.45Q358.66 319.76 358.87 320.18Q359.08 320.6 359.08 321.13Q359.08 321.82 358.77 322.32Q358.56 322.64 358.23 322.88Q357.37 323.49 355.79 323.49L351.72 323.49ZM410.76 323.49L410.76 318.83L414.83 318.83Q416.41 318.83 417.27 319.45Q417.7 319.76 417.91 320.18Q418.12 320.6 418.12 321.13Q418.12 321.82 417.81 322.32Q417.6 322.64 417.27 322.88Q416.41 323.49 414.83 323.49L410.76 323.49ZM237.76 354.66L231.46 339.6L229.55 339.6L229.55 356.67L231 356.67L231 349.19L230.88 341.68L237.21 356.67L238.32 356.67L244.67 341.62L244.55 349.24L244.55 356.67L246 356.67L246 339.6L244.07 339.6L237.76 354.66ZM267.56 339.6L267.56 356.67L273.26 356.67Q275.87 356.67 277.32 355.39Q277.73 355.04 278.03 354.61Q278.78 353.49 278.78 351.86Q278.78 351.04 278.51 350.33Q278.28 349.75 277.88 349.24Q277.52 348.79 277.07 348.46Q276.38 347.97 275.48 347.77Q276.4 347.46 277.03 346.86Q277.26 346.63 277.45 346.37Q277.66 346.09 277.81 345.79Q278.18 345.02 278.18 344.07Q278.18 342.42 277.38 341.37Q277.12 341.02 276.76 340.73Q275.34 339.6 272.6 339.6L267.56 339.6ZM290.47 354.66L284.18 339.6L282.26 339.6L282.26 356.67L283.71 356.67L283.71 349.19L283.59 341.68L289.92 356.67L291.03 356.67L297.38 341.62L297.26 349.24L297.26 356.67L298.71 356.67L298.71 339.6L296.78 339.6L290.47 354.66ZM306.71 354.71L306.18 352.06L303.07 339.6L301.59 339.6L305.95 356.67L307.33 356.67L311.29 343.32L311.71 341.63L312.15 343.32L316.01 356.67L317.4 356.67L321.77 339.6L320.29 339.6L317.21 352.06L316.65 354.73L316.01 352.18L312.36 339.6L311.06 339.6L307.35 352.18L306.71 354.71ZM322.73 343.68L326.62 344.95L324.08 348.46L325.07 349.18L327.46 345.63L329.97 349.2L330.97 348.46L328.35 345.02L332.26 343.67L331.87 342.49L328.07 343.97L328.17 339.6L326.95 339.6L327 343.94L323.1 342.5L322.73 343.68ZM332.91 343.68L336.8 344.95L334.26 348.46L335.26 349.18L337.65 345.63L340.16 349.2L341.15 348.46L338.54 345.02L342.44 343.67L342.05 342.49L338.26 343.97L338.35 339.6L337.13 339.6L337.18 343.94L333.29 342.5L332.91 343.68ZM272.94 347.26L269 347.26L269 340.83L272.6 340.83Q274.67 340.83 275.7 341.61Q275.91 341.78 276.09 341.98Q276.72 342.74 276.72 344.03Q276.72 345.21 276.16 345.96Q275.97 346.21 275.73 346.41Q274.74 347.22 272.94 347.26ZM108.19 355.16Q109.51 353.42 109.51 350.45L109.51 350.26Q109.51 347.2 108.21 345.47Q107.65 344.73 106.91 344.3Q105.93 343.75 104.64 343.75Q103.16 343.75 102.08 344.41Q101.26 344.91 100.67 345.78L100.6 343.99L99.3 343.99L99.3 361.54L100.69 361.54L100.69 355.07Q101.17 355.7 101.79 356.11Q102.97 356.9 104.68 356.9Q105.81 356.9 106.71 356.44Q107.56 356.01 108.19 355.16ZM139.55 346.85Q138.84 348.31 138.84 350.14L138.84 350.42Q138.84 353.02 140.08 354.7Q140.24 354.92 140.42 355.12Q141.06 355.86 141.87 356.29Q143.03 356.9 144.51 356.9Q145.8 356.9 146.87 356.41Q147.17 356.28 147.45 356.1Q147.8 355.89 148.1 355.63Q148.93 354.91 149.45 353.84Q150.16 352.36 150.16 350.52L150.16 350.23Q150.16 347.62 148.91 345.93Q148.76 345.72 148.59 345.53Q147.96 344.81 147.17 344.38Q146 343.75 144.49 343.75Q143.3 343.75 142.29 344.18Q141.91 344.34 141.55 344.57Q141.17 344.81 140.83 345.11Q140.05 345.82 139.55 346.85ZM173.82 356.52Q174.78 356.9 175.89 356.9Q177.63 356.9 178.88 356.12Q179.75 355.58 180.38 354.66L179.5 353.99Q178.8 354.9 177.94 355.31Q177.08 355.72 175.95 355.72Q175.04 355.72 174.28 355.38Q173.48 355.02 172.84 354.28Q172.54 353.93 172.32 353.55Q171.6 352.33 171.6 350.69L171.6 350.42L180.65 350.42L180.65 349.63Q180.65 346.91 179.31 345.34L179.3 345.33Q178.82 344.77 178.23 344.42Q177.13 343.75 175.64 343.75Q175.02 343.75 174.44 343.9Q173.63 344.1 172.89 344.59Q172.57 344.8 172.28 345.06Q171.45 345.8 170.92 346.89Q170.21 348.36 170.21 350.19L170.21 350.69Q170.21 352.36 170.86 353.72Q170.9 353.8 170.94 353.88Q171.41 354.8 172.12 355.46Q172.51 355.82 172.97 356.1Q173.38 356.35 173.82 356.52ZM94.16 356.67L95.56 356.67L95.56 343.99L85.92 343.99L85.92 356.67L87.32 356.67L87.32 345.19L94.16 345.19L94.16 356.67ZM122.35 343.99L120.94 343.99L114.1 354.42L114.1 343.99L112.71 343.99L112.71 356.67L114.1 356.67L120.94 346.25L120.94 356.67L122.35 356.67L122.35 343.99ZM135.85 356.67L135.85 343.99L127.91 343.99L127.65 350.13Q127.48 353.08 126.96 354.23Q126.67 354.85 126.19 355.14Q125.78 355.39 125.22 355.4L124.79 355.42L124.79 356.67L125.33 356.67Q126.51 356.67 127.25 356.1Q127.3 356.05 127.35 356.01Q128.12 355.35 128.5 353.96Q128.89 352.58 129.03 349.94L129.25 345.19L134.44 345.19L134.44 356.67L135.85 356.67ZM160.81 350.81L162.5 350.81L167.19 356.67L168.98 356.67L163.72 350.16L168.41 343.99L166.68 343.99L162.52 349.55L160.81 349.55L160.81 343.99L159.41 343.99L159.41 349.55L157.71 349.55L153.55 343.99L151.85 343.99L156.51 350.16L151.26 356.67L153.04 356.67L157.73 350.81L159.41 350.81L159.41 356.67L160.81 356.67L160.81 350.81ZM191.71 356.67L193.12 356.67L193.12 343.99L191.71 343.99L191.71 349.67L184.88 349.67L184.88 343.99L183.48 343.99L183.48 356.67L184.88 356.67L184.88 350.85L191.71 350.85L191.71 356.67ZM206.61 343.99L205.2 343.99L198.36 354.42L198.36 343.99L196.96 343.99L196.96 356.67L198.36 356.67L205.2 346.25L205.2 356.67L206.61 356.67L206.61 343.99ZM219.6 356.67L219.6 343.99L214.65 343.99Q212.54 343.99 211.3 345.02Q210.8 345.44 210.5 345.97Q210.07 346.75 210.07 347.77Q210.07 348.73 210.44 349.5Q210.59 349.8 210.79 350.07Q210.98 350.33 211.21 350.54Q211.86 351.13 212.81 351.38L209.62 356.67L211.17 356.67L214.26 351.56L218.2 351.56L218.2 356.67L219.6 356.67ZM257.71 343.99L254.01 354.65L250.07 343.99L248.54 343.99L253.32 356.56L252.7 358.27Q252.25 359.51 251.61 360.02Q251.6 360.03 251.59 360.05Q250.95 360.53 249.94 360.53L249.22 360.46L249.23 361.62Q249.8 361.79 250.31 361.79Q251.12 361.79 251.78 361.46Q252.88 360.92 253.53 359.48L253.81 358.82L259.23 343.99L257.71 343.99ZM141.21 353.97Q140.25 352.58 140.25 350.52L140.25 350.27Q140.25 347.96 141.36 346.5Q141.39 346.46 141.43 346.42Q142.03 345.67 142.81 345.3Q143.57 344.95 144.49 344.95Q145.34 344.95 146.07 345.25Q146.4 345.4 146.71 345.61Q146.84 345.69 146.95 345.78Q147.75 346.42 148.23 347.48Q148.77 348.69 148.77 350.14L148.77 350.41Q148.77 352.77 147.62 354.22Q147.6 354.24 147.59 354.26Q147.02 354.96 146.28 355.33Q145.49 355.72 144.51 355.72Q143.51 355.72 142.71 355.31Q141.98 354.95 141.42 354.26Q141.31 354.12 141.21 353.97ZM174.19 345.23Q174.85 344.95 175.64 344.95Q176.55 344.95 177.27 345.33Q177.8 345.61 178.21 346.1Q178.31 346.21 178.4 346.33Q179.2 347.42 179.26 349.07L179.26 349.22L171.65 349.22Q171.89 347.27 172.97 346.11Q173.52 345.52 174.19 345.23ZM107.1 346.38Q108.1 347.78 108.1 350.21Q108.1 352.89 107.11 354.3Q106.65 354.97 106.01 355.32Q105.29 355.72 104.35 355.72Q103.11 355.72 102.18 355.17Q102.16 355.16 102.14 355.14Q101.91 355 101.71 354.83Q101.08 354.3 100.69 353.48L100.69 347.4Q101.14 346.33 101.93 345.73Q102.02 345.66 102.11 345.59Q102.2 345.53 102.29 345.48Q103.16 344.97 104.33 344.97Q105.29 344.97 106.02 345.38Q106.65 345.73 107.1 346.38ZM211.79 349.11Q211.47 348.54 211.47 347.79Q211.47 347.03 211.81 346.46Q212.01 346.14 212.31 345.88Q213.15 345.18 214.61 345.18L218.2 345.18L218.2 350.36L214.16 350.36Q213.05 350.34 212.37 349.79Q212.27 349.71 212.18 349.62Q211.95 349.39 211.79 349.11ZM269 355.45L269 348.46L273.44 348.46Q275.24 348.46 276.27 349.35Q276.29 349.37 276.31 349.38Q276.63 349.67 276.85 350.01Q277.34 350.79 277.34 351.88Q277.34 353.09 276.79 353.91Q276.57 354.24 276.26 354.5Q276.22 354.54 276.17 354.58Q275.1 355.45 273.32 355.45L269 355.45Z" fill="#FFFFFF" fill-opacity="1.000000" fill-rule="evenodd"/>
	</g>
</svg>
