<svg width="52.000000" height="52.000000" viewBox="0 0 52 52" fill="none" xmlns="http://www.w3.org/2000/svg" xmlns:xlink="http://www.w3.org/1999/xlink">
	<desc>
			Created with Pixso.
	</desc>
	<defs>
		<clipPath id="clip1_9">
			<rect id="BMW_Grey-Colour_RGB.SVG.asset.1697707041685.SVG" width="52.000000" height="52.000000" fill="white" fill-opacity="0"/>
		</clipPath>
		<clipPath id="clip1_8">
			<rect id="BMW_Grey-Colour_RGB.SVG.asset.1697707041685.SVG fill" width="52.000000" height="52.000000" fill="white" fill-opacity="0"/>
		</clipPath>
		<clipPath id="clip1_7">
			<rect id="BMW_Grey-Colour_RGB.SVG.asset.1697707041685.SVG" width="52.000000" height="52.000000" fill="white" fill-opacity="0"/>
		</clipPath>
	</defs>
	<g clip-path="url(#clip1_7)">
		<g clip-path="url(#clip1_8)">
			<g clip-path="url(#clip1_9)">
				<path id="Vector" d="M26 0C11.64 0 0 11.64 0 26C0 40.35 11.64 52 26 52C40.35 52 52 40.35 52 26C52 11.64 40.35 0 26 0ZM50.3 26C50.3 39.42 39.42 50.3 26 50.3C12.57 50.3 1.69 39.42 1.69 26C1.69 12.57 12.57 1.69 26 1.69C39.42 1.69 50.3 12.57 50.3 26Z" fill="#6F6F6F" fill-opacity="1.000000" fill-rule="nonzero"/>
				<path id="Vector" d="M25.99 10.58L25.99 11.42C34.03 11.42 40.57 17.96 40.57 26L41.41 26C41.41 17.48 34.51 10.58 25.99 10.58ZM25.99 40.57C17.96 40.57 11.42 34.03 11.42 26L10.58 26C10.58 34.51 17.48 41.41 25.99 41.41L25.99 40.57Z" fill="#6F6F6F" fill-opacity="1.000000" fill-rule="nonzero"/>
				<path id="W_61_" d="M38.6 14.96C38.95 15.34 39.46 15.95 39.74 16.33L45.01 12.98C44.69 12.57 44.35 12.15 44.01 11.75L40.68 13.95L40.45 14.15L40.62 13.9L42.09 10.96L41.05 9.92L38.11 11.39L37.87 11.56L38.06 11.34L40.27 8C39.88 7.67 39.51 7.37 39.03 7L35.69 12.26C36.11 12.59 36.67 13.07 37.03 13.39L40.17 11.76L40.38 11.61L40.23 11.81L38.6 14.96Z" fill="#6F6F6F" fill-opacity="1.000000" fill-rule="nonzero"/>
				<path id="M_61_" d="M26.65 8.3L28.09 5.07L28.18 4.79L28.15 5.09L28.3 9.39C28.81 9.44 29.33 9.51 29.84 9.6L29.61 3.22C28.89 3.14 28.18 3.08 27.46 3.05L26.04 6.57L25.99 6.83L25.94 6.57L24.53 3.05C23.81 3.08 23.1 3.14 22.38 3.22L22.14 9.6C22.66 9.51 23.18 9.44 23.68 9.39L23.83 5.09L23.81 4.79L23.9 5.07L25.34 8.3L26.65 8.3Z" fill="#6F6F6F" fill-opacity="1.000000" fill-rule="nonzero"/>
				<path id="B_x5F_22d_61_" d="M15.01 13.38C15.85 12.5 16.32 11.49 15.49 10.53C15.03 10 14.27 9.89 13.64 10.15L13.58 10.17L13.6 10.11C13.69 9.87 13.75 9.07 13.08 8.52C12.75 8.25 12.33 8.16 11.91 8.2C11.13 8.28 10.53 8.81 8.9 10.63C8.4 11.19 7.68 12.05 7.25 12.62L11.74 16.88C13.23 15.23 13.84 14.62 15.01 13.38ZM9.15 12.34C10.06 11.23 11.02 10.23 11.45 9.83C11.59 9.7 11.74 9.58 11.92 9.53C12.22 9.45 12.52 9.66 12.59 9.96C12.66 10.26 12.47 10.55 12.26 10.79C11.78 11.33 10.02 13.17 10.02 13.17L9.15 12.34ZM10.91 14.01C10.91 14.01 12.62 12.2 13.18 11.62C13.4 11.39 13.54 11.25 13.7 11.18C13.89 11.08 14.11 11.06 14.3 11.19C14.49 11.32 14.58 11.54 14.53 11.75C14.47 12.01 14.26 12.26 14.09 12.45C13.85 12.7 11.83 14.87 11.82 14.87L10.91 14.01Z" fill="#6F6F6F" fill-opacity="1.000000" fill-rule="nonzero"/>
				<path id="Vector" d="M25.99 10.58L25.99 26L10.58 26C10.58 17.47 17.47 10.58 25.99 10.58ZM41.41 26C41.41 34.52 34.52 41.41 25.99 41.41L25.99 26L41.41 26Z" fill="#0066B1" fill-opacity="1.000000" fill-rule="nonzero"/>
			</g>
		</g>
	</g>
</svg>
