<svg width="52.000000" height="52.000000" viewBox="0 0 52 52" fill="none" xmlns="http://www.w3.org/2000/svg" xmlns:xlink="http://www.w3.org/1999/xlink">
	<desc>
			Created with Pixso.
	</desc>
	<defs>
		<clipPath id="clip1_131">
			<rect id="BMW_White_Logo.svg.asset.1670245093434.svg" width="52.000000" height="52.000000" fill="white" fill-opacity="0"/>
		</clipPath>
		<clipPath id="clip1_130">
			<rect id="BMW_White_Logo.svg.asset.1670245093434.svg fill" width="52.000000" height="52.000000" fill="white" fill-opacity="0"/>
		</clipPath>
		<clipPath id="clip1_129">
			<rect id="Link → BMW_White_Logo.svg.asset.1670245093434.svg" width="52.000000" height="52.000000" fill="white" fill-opacity="0"/>
		</clipPath>
	</defs>
	<g clip-path="url(#clip1_129)">
		<g clip-path="url(#clip1_130)">
			<g clip-path="url(#clip1_131)">
				<path id="Vector" d="M25.93 0C11.61 0 0 11.61 0 25.93C0 40.25 11.61 51.87 25.93 51.87C40.25 51.87 51.87 40.25 51.87 25.93C51.87 11.61 40.25 0 25.93 0ZM50.18 25.93C50.18 39.32 39.32 50.18 25.93 50.18C12.54 50.18 1.68 39.32 1.68 25.93C1.68 12.54 12.54 1.68 25.93 1.68C39.32 1.68 50.18 12.54 50.18 25.93Z" fill="#FFFFFF" fill-opacity="1.000000" fill-rule="nonzero"/>
				<path id="Vector" d="M38.5 14.93C38.85 15.31 39.36 15.92 39.65 16.29L44.9 12.95C44.64 12.61 44.22 12.09 43.91 11.72L40.58 13.92L40.35 14.11L40.52 13.87L41.99 10.94L40.95 9.9L38.02 11.37L37.77 11.54L37.97 11.31L40.17 7.98C39.78 7.65 39.41 7.35 38.94 6.99L35.6 12.23C36.02 12.56 36.58 13.04 36.94 13.36L40.07 11.73L40.28 11.58L40.13 11.79L38.5 14.93Z" fill="#FFFFFF" fill-opacity="1.000000" fill-rule="nonzero"/>
				<path id="Vector" d="M26.58 8.28L28.02 5.06L28.11 4.78L28.08 5.07L28.24 9.37C28.74 9.42 29.26 9.49 29.77 9.57L29.54 3.21C28.82 3.13 28.11 3.08 27.39 3.04L25.98 6.55L25.93 6.81L25.88 6.55L24.47 3.04C23.75 3.08 23.04 3.13 22.32 3.21L22.09 9.57C22.6 9.49 23.12 9.42 23.63 9.37L23.78 5.07L23.75 4.78L23.84 5.06L25.28 8.28L26.58 8.28Z" fill="#FFFFFF" fill-opacity="1.000000" fill-rule="nonzero"/>
				<path id="Vector" d="M14.98 13.35C15.81 12.47 16.28 11.46 15.45 10.5C15 9.98 14.24 9.86 13.61 10.12L13.55 10.14L13.57 10.09C13.66 9.84 13.72 9.05 13.04 8.5C12.71 8.23 12.3 8.14 11.88 8.18C11.1 8.26 10.5 8.79 8.87 10.61C8.38 11.16 7.66 12.02 7.23 12.58L11.72 16.84C13.2 15.19 13.81 14.58 14.98 13.35ZM9.13 12.31C10.03 11.2 10.99 10.2 11.43 9.8C11.56 9.68 11.71 9.55 11.89 9.51C12.19 9.43 12.49 9.63 12.56 9.94C12.63 10.24 12.44 10.53 12.23 10.77C11.75 11.3 10 13.14 10 13.14L9.13 12.31ZM10.88 13.97C10.88 13.97 12.59 12.17 13.15 11.59C13.37 11.36 13.51 11.23 13.66 11.15C13.86 11.06 14.07 11.04 14.27 11.16C14.45 11.29 14.54 11.51 14.49 11.72C14.44 11.98 14.23 12.23 14.05 12.42C13.82 12.67 11.8 14.83 11.79 14.83L10.88 13.97Z" fill="#FFFFFF" fill-opacity="1.000000" fill-rule="nonzero"/>
				<path id="Vector" d="M41.31 25.93L25.93 25.93L25.93 10.55C34.43 10.55 41.31 17.43 41.31 25.93Z" fill="#FFFFFF" fill-opacity="1.000000" fill-rule="nonzero"/>
				<path id="Vector" d="M25.93 25.93L25.93 41.31C17.43 41.31 10.55 34.43 10.55 25.93L25.93 25.93Z" fill="#FFFFFF" fill-opacity="1.000000" fill-rule="nonzero"/>
				<path id="Vector" d="M25.93 10.55L25.93 25.93L10.55 25.93C10.55 17.43 17.43 10.55 25.93 10.55Z" fill="#0066B1" fill-opacity="1.000000" fill-rule="nonzero"/>
				<path id="Vector" d="M41.31 25.93C41.31 34.43 34.43 41.31 25.93 41.31L25.93 25.93L41.31 25.93Z" fill="#0066B1" fill-opacity="1.000000" fill-rule="nonzero"/>
			</g>
		</g>
	</g>
</svg>
