<svg width="16.066650" height="16.066668" viewBox="0 0 16.0667 16.0667" fill="none" xmlns="http://www.w3.org/2000/svg" xmlns:xlink="http://www.w3.org/1999/xlink">
	<desc>
			Created with Pixso.
	</desc>
	<defs/>
	<path id="Vector" d="M6.86 0C4.77 0 3.11 0.62 1.86 1.86C0.62 3.11 0 4.78 0 6.9C0 9.01 0.62 10.67 1.86 11.9C3.11 13.12 4.77 13.73 6.86 13.73C8.73 13.73 10.26 13.26 11.46 12.33L15.2 16.06L16.06 15.2L12.33 11.46C13.26 10.26 13.73 8.73 13.73 6.86C13.73 4.77 13.12 3.11 11.9 1.86C10.67 0.62 9 0 6.86 0ZM1.26 6.86C1.26 5.13 1.76 3.76 2.76 2.76C3.76 1.76 5.14 1.26 6.9 1.26C8.65 1.26 10.03 1.76 11.03 2.76C12.03 3.76 12.53 5.14 12.53 6.9C12.53 8.65 12.03 10.03 11.03 11.03C10.03 12.03 8.65 12.53 6.9 12.53C5.14 12.53 3.76 12.03 2.76 11.03C1.76 10.03 1.26 8.64 1.26 6.86Z" fill="#FFFFFF" fill-opacity="1.000000" fill-rule="nonzero"/>
</svg>
