<svg width="15.799988" height="15.600000" viewBox="0 0 15.8 15.6" fill="none" xmlns="http://www.w3.org/2000/svg" xmlns:xlink="http://www.w3.org/1999/xlink">
	<desc>
			Created with Pixso.
	</desc>
	<defs/>
	<path id="Vector" d="M1.33 15.6L0 15.6L0.06 15.46C0.33 14.44 0.62 13.66 0.93 13.13C1.33 12.51 1.81 12.06 2.36 11.8C2.92 11.53 3.68 11.37 4.66 11.33C5.24 11.28 6.33 11.26 7.93 11.26C9.53 11.26 10.62 11.28 11.2 11.33C12.17 11.37 12.94 11.53 13.5 11.8C14.05 12.06 14.53 12.51 14.93 13.13C15.24 13.66 15.53 14.44 15.8 15.46L15.8 15.6L14.53 15.6C14.31 14.75 14.07 14.14 13.83 13.76C13.58 13.38 13.27 13.11 12.9 12.93C12.52 12.75 11.93 12.62 11.13 12.53C10.55 12.53 9.48 12.53 7.93 12.53C6.37 12.53 5.31 12.53 4.73 12.53C3.93 12.62 3.34 12.75 2.96 12.93C2.58 13.11 2.27 13.38 2.03 13.76C1.78 14.14 1.55 14.75 1.33 15.6ZM5.66 2C5.08 2.57 4.79 3.58 4.79 5.03C4.79 6.47 5.08 7.48 5.66 8.06C6.15 8.51 6.91 8.73 7.93 8.73C8.95 8.73 9.71 8.51 10.2 8.06C10.77 7.48 11.06 6.47 11.06 5.03C11.06 3.58 10.77 2.57 10.2 2C9.71 1.51 8.95 1.26 7.93 1.26C6.91 1.26 6.15 1.51 5.66 2ZM4.79 1.06C5.51 0.35 6.55 0 7.93 0C9.31 0 10.35 0.35 11.06 1.06C11.91 1.91 12.33 3.22 12.33 5C12.33 6.77 11.91 8.08 11.06 8.93C10.35 9.64 9.31 10 7.93 10C6.55 10 5.51 9.64 4.79 8.93C3.95 8.08 3.53 6.77 3.53 5C3.53 3.22 3.95 1.91 4.79 1.06Z" fill="#FFFFFF" fill-opacity="1.000000" fill-rule="nonzero"/>
</svg>
