<svg width="13.733337" height="17.466675" viewBox="0 0 13.7333 17.4667" fill="none" xmlns="http://www.w3.org/2000/svg" xmlns:xlink="http://www.w3.org/1999/xlink">
	<desc>
			Created with Pixso.
	</desc>
	<defs/>
	<path id="Vector" d="M2.73 2.73C1.75 3.71 1.26 5.08 1.26 6.86C1.26 8.46 1.91 10.17 3.2 12C4 13.2 5.2 14.62 6.79 16.26L6.93 16.26C8.53 14.62 9.73 13.2 10.53 12C11.82 10.17 12.46 8.46 12.46 6.86C12.46 5.08 11.97 3.7 11 2.7C10.02 1.7 8.64 1.2 6.86 1.2C5.08 1.2 3.71 1.71 2.73 2.73ZM1.86 1.86C3.11 0.62 4.77 0 6.86 0C8.95 0 10.62 0.62 11.86 1.86C13.11 3.11 13.73 4.77 13.73 6.86C13.73 8.68 13.02 10.64 11.6 12.73C10.75 13.97 9.42 15.48 7.6 17.26L7.46 17.46L6.26 17.46L6.13 17.26C4.31 15.48 2.97 13.97 2.13 12.73C0.71 10.64 0 8.68 0 6.86C0 4.77 0.62 3.11 1.86 1.86ZM5.46 5.46C5.15 5.77 5 6.23 5 6.83C5 7.43 5.16 7.9 5.5 8.23C5.83 8.56 6.28 8.73 6.86 8.73C7.44 8.73 7.89 8.56 8.23 8.23C8.56 7.9 8.73 7.43 8.73 6.83C8.73 6.23 8.56 5.77 8.23 5.46C7.89 5.15 7.44 5 6.86 5C6.28 5 5.82 5.15 5.46 5.46ZM4.6 4.6C5.17 4.02 5.93 3.73 6.86 3.73C7.79 3.73 8.55 4.02 9.13 4.6C9.71 5.17 10 5.93 10 6.86C10 7.79 9.71 8.55 9.13 9.13C8.55 9.71 7.79 10 6.86 10C5.93 10 5.17 9.71 4.6 9.13C4.02 8.55 3.73 7.79 3.73 6.86C3.73 5.93 4.02 5.17 4.6 4.6Z" fill="#666666" fill-opacity="1.000000" fill-rule="nonzero"/>
</svg>
